<?xml version="1.0" encoding="UTF-8" ?>
<!DOCTYPE svg PUBLIC "-//W3C//DTD SVG 1.1//EN" "http://www.w3.org/Graphics/SVG/1.1/DTD/svg11.dtd">
<svg width="512pt" height="512pt" viewBox="0 0 512 512" version="1.1" xmlns="http://www.w3.org/2000/svg">
<g id="#ffffffff">
<path fill="#ffffff" opacity="1.00" d=" M 117.14 179.13 C 120.02 176.40 124.05 175.27 127.95 175.40 C 153.63 175.42 179.31 175.37 204.99 175.42 C 215.67 175.30 225.86 181.86 230.64 191.32 C 238.76 207.68 246.70 224.12 254.83 240.47 C 250.81 248.31 246.63 256.07 242.58 263.90 C 231.94 243.72 221.37 223.50 210.77 203.30 C 209.73 201.04 207.65 199.04 204.99 199.23 C 183.63 199.15 162.27 199.22 140.92 199.20 C 163.36 245.94 185.83 292.66 208.32 339.38 C 234.61 289.92 260.58 240.27 286.79 190.76 C 291.66 181.62 301.60 175.37 312.02 175.42 C 337.34 175.37 362.67 175.41 387.99 175.40 C 392.62 175.19 397.33 177.13 400.19 180.83 C 404.27 185.75 404.77 193.09 401.74 198.66 C 375.10 252.69 348.50 306.74 321.85 360.76 C 319.20 366.50 313.37 370.71 307.00 370.95 C 300.29 371.34 293.79 367.21 290.85 361.25 C 280.86 341.80 271.02 322.27 260.98 302.84 C 264.63 295.43 268.51 288.13 272.28 280.78 C 283.71 300.20 294.81 319.81 306.14 339.28 C 329.01 292.60 351.84 245.90 374.70 199.21 C 353.79 199.21 332.87 199.14 311.96 199.24 C 309.33 199.11 307.36 201.14 306.34 203.36 C 278.71 256.06 251.09 308.76 223.45 361.46 C 220.71 366.85 215.12 370.76 209.02 371.03 C 201.98 371.52 195.25 366.98 192.41 360.64 C 166.20 306.54 140.01 252.43 113.82 198.32 C 110.56 192.10 111.82 183.81 117.14 179.13 Z" />
</g>
<g id="#2975e6ff">
<path fill="#2975e6" opacity="1.00" d=" M 250.56 20.48 C 258.63 19.06 266.87 20.95 274.51 23.52 C 284.52 27.79 293.59 33.89 303.28 38.78 C 351.90 65.88 400.63 92.77 449.27 119.83 C 460.69 126.12 467.00 139.19 466.99 151.96 C 467.01 218.32 467.00 284.68 466.99 351.04 C 467.01 361.23 465.99 372.19 459.73 380.65 C 456.15 384.46 452.58 388.57 447.62 390.60 C 394.68 420.04 341.68 449.39 288.69 478.75 C 283.14 482.00 277.38 485.13 271.06 486.62 C 257.25 490.11 242.69 486.53 230.06 480.65 C 218.16 474.40 206.53 467.67 194.73 461.23 C 153.85 438.45 112.87 415.85 71.94 393.13 C 66.70 389.78 60.36 387.94 56.19 383.07 C 49.11 375.25 47.80 364.06 48.07 353.93 C 48.07 286.95 48.13 219.98 48.04 153.00 C 47.32 142.39 51.62 131.62 59.40 124.39 C 65.95 118.85 74.02 115.63 81.31 111.24 C 122.40 88.33 163.62 65.67 204.71 42.77 C 216.37 36.49 227.74 29.66 239.60 23.75 C 243.00 21.94 246.79 21.13 250.56 20.48 M 117.14 179.13 C 111.82 183.81 110.56 192.10 113.82 198.32 C 140.01 252.43 166.20 306.54 192.41 360.64 C 195.25 366.98 201.98 371.52 209.02 371.03 C 215.12 370.76 220.71 366.85 223.45 361.46 C 251.09 308.76 278.71 256.06 306.34 203.36 C 307.36 201.14 309.33 199.11 311.96 199.24 C 332.87 199.14 353.79 199.21 374.70 199.21 C 351.84 245.90 329.01 292.60 306.14 339.28 C 294.81 319.81 283.71 300.20 272.28 280.78 C 268.51 288.13 264.63 295.43 260.98 302.84 C 271.02 322.27 280.86 341.80 290.85 361.25 C 293.79 367.21 300.29 371.34 307.00 370.95 C 313.37 370.71 319.20 366.50 321.85 360.76 C 348.50 306.74 375.10 252.69 401.74 198.66 C 404.77 193.09 404.27 185.75 400.19 180.83 C 397.33 177.13 392.62 175.19 387.99 175.40 C 362.67 175.41 337.34 175.37 312.02 175.42 C 301.60 175.37 291.66 181.62 286.79 190.76 C 260.58 240.27 234.61 289.92 208.32 339.38 C 185.83 292.66 163.36 245.94 140.92 199.20 C 162.27 199.22 183.63 199.15 204.99 199.23 C 207.65 199.04 209.73 201.04 210.77 203.30 C 221.37 223.50 231.94 243.72 242.58 263.90 C 246.63 256.07 250.81 248.31 254.83 240.47 C 246.70 224.12 238.76 207.68 230.64 191.32 C 225.86 181.86 215.67 175.30 204.99 175.42 C 179.31 175.37 153.63 175.42 127.95 175.40 C 124.05 175.27 120.02 176.40 117.14 179.13 Z" />
</g>
</svg>
